<svg xmlns="http://www.w3.org/2000/svg" width="800" height="666.842" viewBox="0 0 800 666.842" xmlns:xlink="http://www.w3.org/1999/xlink" role="img" artist="Katerina Limpitsouni" source="https://undraw.co/"><g transform="translate(-254.082 -261.637)"><g transform="translate(818.707 403.256)"><path d="M110.4,102.086a70.947,70.947,0,0,0-4.6-22.038c-.182-.486-.377-.96-.583-1.446a67.385,67.385,0,0,0-3.937-8.1,59.961,59.961,0,0,0-22.28-22.645c-.182-.1-.352-.194-.523-.292A56.7,56.7,0,0,0,81.289,22.1c-2.163-17.215-10.7-38.353-4.07-2.648a52.889,52.889,0,0,1-2.066,26.436,52.741,52.741,0,0,0-12.136-3.924,62.3,62.3,0,0,0-38.208,5.37l-1.093.547c-.377.206-.753.4-1.118.607A45.085,45.085,0,0,0,4.74,65.445a37.434,37.434,0,0,0-3.122,7.289A36.9,36.9,0,0,0,.184,80.024C.075,81.154.014,82.32,0,83.5A30.877,30.877,0,0,0,.2,87.313,26.8,26.8,0,0,0,2.055,94.6a20.214,20.214,0,0,0,4.276,6.548c.255.255.51.51.778.741a20.866,20.866,0,0,0,19.256,4.264,31.908,31.908,0,0,0,5.357-1.907q.838-.365,1.64-.8c.535-.267,1.069-.559,1.6-.863A63.649,63.649,0,0,0,47.807,92.452a170.8,170.8,0,0,0,17.64-20.714q1.166-1.6,2.3-3.244a89.683,89.683,0,0,0,9.464-17.543A55.774,55.774,0,0,1,97.932,71.8a60.686,60.686,0,0,1,4.41,9.233c.194.462.364.935.534,1.409.364,1,.7,2.017,1.008,3.037a66.422,66.422,0,0,1,2.879,18.77c.024,1.956-.049,3.924-.206,5.868-.036.535-.085,1.057-.146,1.579a64.144,64.144,0,0,1-4.628,18.162c-.329.79-.68,1.579-1.045,2.357a78.787,78.787,0,0,1-29.351,32.838,84.538,84.538,0,0,1-21.041,9.622c-2.235.68-1.288,4.2.972,3.523,23.58-7.119,44.6-24.613,53.976-47.344a67.987,67.987,0,0,0,4.957-20.556c.012-.206.037-.413.037-.62.048-.62.085-1.227.109-1.847C110.481,105.925,110.47,104.005,110.4,102.086ZM63.163,68.7A167.713,167.713,0,0,1,45.9,89.208a70.393,70.393,0,0,1-9.306,8.055c-.5.352-1.008.693-1.519,1.033s-1.033.644-1.555.948a30.109,30.109,0,0,1-9.378,3.693,17.166,17.166,0,0,1-12.392-2.187,15.918,15.918,0,0,1-5.7-6.147,6.4,6.4,0,0,1-.328-.644,21.888,21.888,0,0,1-1.883-6.645,28.688,28.688,0,0,1,.012-7.289,34.894,34.894,0,0,1,1.276-6c.133-.437.279-.863.425-1.288a33.733,33.733,0,0,1,3.62-7.289,44.077,44.077,0,0,1,15.7-14.178c.364-.206.728-.4,1.105-.6.352-.194.7-.377,1.069-.547a52.745,52.745,0,0,1,8.334-3.28,55.235,55.235,0,0,1,38.559,2.43A89.309,89.309,0,0,1,63.163,68.7Z" transform="matrix(0.438, -0.899, 0.899, 0.438, 0, 99.277)" fill="#e6e6e6"/><g transform="translate(123.596 128.45)"><ellipse cx="54.669" cy="54.669" rx="54.669" ry="54.669" transform="translate(1.224 1.217)" fill="#f2f2f2"/><path d="M392.015,525.536c-1.251.085-2.5.134-3.778.134h-.182a55.884,55.884,0,1,1,21.2-107.588c1.166.486,2.32,1.008,3.45,1.555a55.886,55.886,0,0,1-20.689,105.9Zm-3.96-109.2a53.455,53.455,0,1,0-.547,106.909h.547c1.081,0,2.15-.036,3.219-.1a53.45,53.45,0,0,0,19.79-101.6c-1.142-.547-2.3-1.045-3.474-1.506A53.064,53.064,0,0,0,388.054,416.332Z" transform="translate(-332.164 -413.901)" fill="#090814"/><path d="M3.079,7.289H57.664A3.079,3.079,0,0,0,60.743,4.21V3.079A3.079,3.079,0,0,0,57.664,0H3.079A3.079,3.079,0,0,0,0,3.079V4.21A3.079,3.079,0,0,0,3.079,7.289Z" transform="translate(86.265 74.109) rotate(180)" fill="#0024ff"/><path d="M3.079,7.289H57.664A3.079,3.079,0,0,0,60.743,4.21V3.079A3.079,3.079,0,0,0,57.664,0H3.079A3.079,3.079,0,0,0,0,3.079V4.21A3.079,3.079,0,0,0,3.079,7.289Z" transform="translate(86.265 59.53) rotate(180)" fill="#0024ff"/><path d="M3.079,7.289H57.664A3.079,3.079,0,0,0,60.743,4.21V3.079A3.079,3.079,0,0,0,57.664,0H3.079A3.079,3.079,0,0,0,0,3.079V4.21A3.079,3.079,0,0,0,3.079,7.289Z" transform="translate(86.265 44.952) rotate(180)" fill="#0024ff"/></g></g><rect width="718.004" height="2.214" transform="translate(254.082 909.123)" fill="#f2f2f2"/><path d="M222,449c.109.326,12.845,2.055,14.6,6.165,0,0-12.548-5.839-14.495-5.839" transform="translate(219.172 86.682)" opacity="0.1"/><path d="M240.09,482.87s-10.6,3.35-9.88,8.438S229.172,488.927,240.09,482.87Z" transform="translate(219.074 86.277)" opacity="0.1"/><path d="M235.21,508.876s3.863-5.306,7.539-4.328S235.21,508.876,235.21,508.876Z" transform="translate(219.014 86.019)" opacity="0.1"/><g transform="translate(296.387 321.976)"><path d="M265.029,544.6c-4.448,19.583-22.157-10.014-26.187-17.117l-.822-1.469,1.927-9L250.1,512.87a28.3,28.3,0,0,1,4.542,2.952C260.191,520.161,268.466,529.448,265.029,544.6Z" transform="translate(-208.967 -213.225)" fill="#ed9da0"/><path d="M367.528,513.933a1.372,1.372,0,0,1-.108.431l-.148.485c-1.725,6.105-12.062,40.514-22.022,31-10.917-10.472-5.607-34.543-5.607-34.543h.067l22.912-2.345,4.542,4.663h0Z" transform="translate(-174.076 -214.585)" fill="#ed9da0"/><path d="M386.335,682.517c-8.41,80.569-7.669,93.845-7.669,93.845l-29.651,1.172s-2.062-18.437-2.062-52.212c0,0-21.551-134.87-27.589-155.343.162.889-4.569,38.33-4.569,38.33l.876,58.736.593,40.136.3,64.625h-31.9l-4.987-30.311s-1.753-57.575-4.557-69.974c-1.678-7.347-8.921-56.715-8.921-56.715l-6.86-46.632a90.3,90.3,0,0,0-3.4-26.565c-4.043-13.275-9.879-30.688-9.879-30.688l6.658.593,33.694,2.992s81.742-5.5,85.408-.93a15.066,15.066,0,0,1,1.536,4.758c3.666,16.5,8.518,68.143,8.518,68.143Z" transform="translate(-206.171 -213.903)" fill="#090814"/><path d="M314.49,731.051c-.229,3.653-4.313,3.868-4.313,3.868-11.955,1.887-14.5,6.537-14.5,6.537A38.478,38.478,0,0,1,266.9,751.2c-14.7-1.348-13.262-4.043-12.521-8.9a17.078,17.078,0,0,0,.243-2.7c0-6.644,5.081-8.518,13.06-13.478s7.736-9.192,11.065-12.831,3.652-10.782,3.652-10.782c3.76-6.537,13.275.984,13.275.984.445,2.318,14.61,1.995,14.61,1.995s1.887,7.521,2.844,7.965c.647.3,1.119,6.2,1.348,11.267C314.544,727.3,314.57,729.7,314.49,731.051Z" transform="translate(-203.426 -148.201)" fill="#090814"/><path d="M381.516,749.68a6.443,6.443,0,0,1-3.679,3.046h-.283c-4.865.984-23.694.984-23.694.984s-19.03-14.7-24.785-15.041a12.13,12.13,0,0,1-8.855-5.391s.108-3.423.485-7.4c.445-4.717,1.226-10.189,2.615-11.631,2.547-2.7,3.1-6.307,8.855-4.043,0,0,8.181-14.408,17.8-3.275l9.973,15.122s1.873,6.307,14.5,13.06c5.054,2.7,7.345,5.89,7.938,8.8a7.817,7.817,0,0,1-.876,5.768Z" transform="translate(-180.376 -147.207)" fill="#090814"/><path d="M320.227,364.412l-27.238,28.775s-32.98-2.426-27.225-12.13c2.938-4.96,3.4-15.351,3.14-24.381-.243-8.707-1.146-16.173-1.146-16.173s46.269-23.02,42.724-1.55a35.445,35.445,0,0,0-.135,12.265C312.4,362.053,320.227,364.412,320.227,364.412Z" transform="translate(-199.553 -276.891)" fill="#ed9da0"/><path d="M323.59,335.375a34.085,34.085,0,1,1-34.08-34.085,34.1,34.1,0,0,1,34.08,34.085Z" transform="translate(-202.916 -286.804)" fill="#ed9da0"/><path d="M308.828,591.395l-5.31-.552c-32.481,4.583-46.471-8.208-51.4-14.825a20.542,20.542,0,0,1-2.264-3.666l13.168-74.127,3.1-109.169,4.758-19.138,1.092-9.192v-.108h.121l3.356,1.442s9.364,10.829,20.1,8.693,22.831-17.238,22.831-17.238l.324-.256,1.146-.849,1.887,1.51,4.69,3.76,15.055,97.187s26.106,74.828,31,105.031c.189,1.2.35,2.318.472,3.383C376.122,590.883,308.828,591.395,308.828,591.395Z" transform="translate(-204.853 -269.027)" fill="#0024ff"/><path d="M237.551,407.54l-8.41,5.027-7.669,34.085s-9.6,28.923-2.224,49.571,11.658,32.468,11.658,32.468,2.952,23.464,7.386,25.378,6.348,2.952,6.348,2.952l.876,5.607s12.009-4.043,16.267-11.254-3.127-25.041-3.127-25.041-6.348-15.2-4.731-22.278-3.235-25.607-3.235-26.12-.445-10.337,3.086-17.925,1.186-10.849,1.186-10.849l-2.21-21.7Z" transform="translate(-216.464 -249.855)" fill="#d6d6e3"/><path d="M343.449,382.21l16.281,8.491s13.478,35.042,15.728,50.15c0,0,10.041,40.312,3.1,56.9s-6.335,49.49-6.335,49.49-4.043,6.051-5.62,4.421.593,6.348.593,6.348-27.8,3.693-27.926-1.766,6.375-31.578,6.375-31.578,1.766-62.132-.741-71.863S343.449,382.21,343.449,382.21Z" transform="translate(-173.757 -258.664)" fill="#d6d6e3"/><path d="M282.424,358.281l-.445-.229a3.787,3.787,0,0,0-4.043.431L234.147,394.01s-9.515,13.168-8.194,35.9l25.715,36.592s2.952-12.4,6.5-10.041c0,0,5.014,63.453,0,72.6s-7.2,43.344-7.2,43.344l16.968,1.914s1.779-23.168,5.755-31.43,6.159-36.646,6.159-36.646,3.585-41.268,2.992-58.978-5.755-55.77-5.755-55.77S278.529,369.225,282.424,358.281Z" transform="translate(-213.207 -267.202)" fill="#d6d6e3"/><path d="M299.75,352.854a1,1,0,0,1,.755.162Z" transform="translate(-187.5 -268.878)" opacity="0.1"/><path d="M301.06,351.545l48.29,10.4s13.275,2.952,22.912,36.3-13.127,74.208-13.127,74.208l-5.027-4.259,2.52,97.389s-22.292,8.41-29.368,1.038-6.348-41.915-6.348-41.915-6.739-63.749-11.065-74.221-2.13-86.028-2.13-86.028S303.756,350.952,301.06,351.545Z" transform="translate(-187.044 -269.334)" fill="#d6d6e3"/><path d="M55.5,12.625l-5.692,1.423S45.54,38.241,35.578,35.394,0,29.7,0,41.087,24.453,59.242,38.424,61.01s38.424-5.692,37-27.039c-.719-10.78-2.924-23.153-5.761-30.518A8.085,8.085,0,0,0,66.28,0l-2.2,4.515Z" transform="translate(132.531 57.566) rotate(160)" fill="#090814"/></g><g transform="translate(832.799 748.84)"><path d="M564.622,566.69c-.383.187-.758.365-1.141.562a106.036,106.036,0,0,0-14.691,8.8c-.365.25-.731.517-1.087.776a111.2,111.2,0,0,0-28.045,29.81c-1.676,2.6-3.227,5.286-4.671,8.023q-1.658,3.182-3.12,6.472c-3.664,8.317-6.927,17.811-14.138,22.91a18.16,18.16,0,0,1-2.443,1.48c-.071.036-.151.071-.223.107a48.736,48.736,0,0,0-2.113-13.773c-.223-.749-.472-1.5-.74-2.229-.125-.348-.25-.7-.392-1.034a44.524,44.524,0,0,0-3.236-6.775,40.925,40.925,0,0,0-15.208-15.3,65.809,65.809,0,0,1-6.944,12.872c2.1-4.422,4.386-8.736,6.891-12.908a2.472,2.472,0,0,1,.205-.33c.374-.642.767-1.275,1.159-1.908a103.909,103.909,0,0,1,22.705-26.2,75.718,75.718,0,0,1,20.646-11.785c14.8-5.589,31.227-6.392,45.508-.062C563.909,566.36,564.265,566.521,564.622,566.69Z" transform="translate(-466.429 -561.756)" fill="#e6e6e6"/><path d="M567.562,567.7l-.99.08a94.455,94.455,0,0,0-20.458,4.02c-.33.107-.669.214-1.008.321a93.841,93.841,0,0,0-25.763,13.024c-.08.054-.169.116-.249.178q-2.742,1.992-5.34,4.19a40.458,40.458,0,0,0-8.531,9.458,22.625,22.625,0,0,0-3.236,9.9c-.036.348-.063.7-.089,1.052-.009.285-.027.562-.036.847-.08,2.674.044,5.393-.214,8.059a19.843,19.843,0,0,1-.642,3.593,13.451,13.451,0,0,1-3.566,5.982,15.054,15.054,0,0,1-2.139,1.756c-.125-.348-.25-.7-.392-1.034a14.4,14.4,0,0,0,2.1-1.783,11.861,11.861,0,0,0,2.683-4.3,17.238,17.238,0,0,0,.856-3.878c.3-2.621.178-5.313.241-7.925q.027-1.016.107-2.006a23.764,23.764,0,0,1,2.754-9.654,37.484,37.484,0,0,1,8.13-9.752,80.134,80.134,0,0,1,6.365-5.135c.285-.214.571-.428.865-.624a96.422,96.422,0,0,1,47.621-17.339c.33-.036.651-.054.98-.08C568.293,566.6,568.24,567.658,567.562,567.7Z" transform="translate(-469.521 -562.287)" fill="#fff"/><path d="M521,585.145a14.159,14.159,0,0,1,2.584-18.152c.51-.449,1.232.323.721.772a13.111,13.111,0,0,0-2.369,16.89c.365.573-.573,1.06-.936.49Z" transform="translate(-472.116 -562.31)" fill="#fff"/><path d="M502.408,613.579a27.291,27.291,0,0,0,19.69-2.8c.592-.335,1.081.6.49.936a28.387,28.387,0,0,1-20.5,2.877C501.43,614.429,501.749,613.422,502.408,613.579Z" transform="translate(-470.261 -567.069)" fill="#fff"/><path d="M552.087,572.054a8.015,8.015,0,0,0,5.722,5.009c.664.15.344,1.157-.316,1.008a8.981,8.981,0,0,1-6.343-5.528.546.546,0,0,1,.223-.713.531.531,0,0,1,.713.223Z" transform="translate(-475.621 -562.843)" fill="#fff"/><path d="M587.4,651.651c-.41-.08-.82-.16-1.23-.223l-.009-.009h-.017a103.936,103.936,0,0,0-17.018-1.827h-.009c-.446-.018-.883-.036-1.319-.036h-.009a111.027,111.027,0,0,0-40.338,6.918c-.018.009-.027.009-.044.018a106.829,106.829,0,0,0-14.905,6.873c-5.108,2.844-10.367,6.187-15.823,8.13a28.624,28.624,0,0,1-3.343,1c.268-.571.526-1.15.767-1.729a47.069,47.069,0,0,0,3.4-13.327c.045-.383.081-.767.107-1.159.116-1.426.169-2.87.151-4.306a48.737,48.737,0,0,0-2.113-13.773c-.223-.749-.472-1.5-.74-2.229-.125-.348-.25-.7-.392-1.034a44.524,44.524,0,0,0-3.236-6.775c.811-.33,1.631-.651,2.451-.954,2.122-.8,4.27-1.542,6.427-2.229h.009c.357-.116.722-.232,1.087-.339A104.019,104.019,0,0,1,517.684,621a90.176,90.176,0,0,1,9.191-.767,75.78,75.78,0,0,1,23.516,3c.018.009.036.009.054.018,15.19,4.439,28.785,13.693,36.388,27.35C587.029,650.956,587.216,651.295,587.4,651.651Z" transform="translate(-469.127 -568.1)" fill="#e6e6e6"/><path d="M587.751,653.838c-.276-.178-.544-.348-.82-.517l-.009-.009a94.275,94.275,0,0,0-18.765-9.11c-.33-.125-.669-.241-1-.348a93.611,93.611,0,0,0-28.445-5.117c-.107-.009-.205-.009-.3-.009q-3.383-.067-6.757.134a40.375,40.375,0,0,0-12.5,2.416,22.58,22.58,0,0,0-8.54,5.955c-.25.258-.481.517-.7.784-.187.223-.366.437-.544.66-2.434,3.022-4.573,6.4-7.7,8.781-.187.143-.374.276-.562.392a12.72,12.72,0,0,1-2.844,1.48c.045-.383.08-.767.107-1.159a11.217,11.217,0,0,0,1.881-1c.321-.214.633-.437.936-.678,2.826-2.193,4.84-5.3,7.042-8.094.4-.508.8-.99,1.23-1.462a23.523,23.523,0,0,1,8.077-6.124,37.317,37.317,0,0,1,12.355-2.888,80.451,80.451,0,0,1,8.166-.276q.535,0,1.07.027A96.429,96.429,0,0,1,587.591,652.5c.285.169.562.348.838.526C589,653.4,588.322,654.2,587.751,653.838Z" transform="translate(-469.885 -569.993)" fill="#fff"/><path d="M542.853,636.639A14.16,14.16,0,0,1,555.844,623.7c.678-.051.789,1,.111,1.051a13.111,13.111,0,0,0-12.06,12.06C543.842,637.489,542.8,637.313,542.853,636.639Z" transform="translate(-474.726 -568.48)" fill="#fff"/><path d="M511.754,648.091a27.291,27.291,0,0,0,17.41,9.616c.674.089.5,1.131-.172,1.042a28.386,28.386,0,0,1-18.1-10.043c-.434-.525.427-1.137.859-.615Z" transform="translate(-471.244 -571.106)" fill="#fff"/><path d="M576.591,644.566a8.015,8.015,0,0,0,1.553,7.445c.44.519-.422,1.131-.859.615a8.981,8.981,0,0,1-1.736-8.232.546.546,0,0,1,.607-.435A.531.531,0,0,1,576.591,644.566Z" transform="translate(-478.237 -570.679)" fill="#fff"/></g><g transform="translate(612.879 501.827)"><path d="M280.184,408.206c-12.43-17.685-16.775-42.273-6.306-61.184A99.594,99.594,0,0,0,319.8,397.68c8.04,4.189,17.418,8.011,20.983,16.346,2.218,5.187,1.624,11.232-.391,16.5s-5.335,9.92-8.62,14.506l-.2,1.394C311.817,437.661,292.614,425.891,280.184,408.206Z" transform="translate(-267.99 -333.085)" fill="#e6e6e6"/><path d="M275.608,347.1a85.126,85.126,0,0,0,16.5,49.709,36.66,36.66,0,0,0,8.018,8.224,21.024,21.024,0,0,0,10.424,3.713c3.485.336,7.089.275,10.432,1.453a12.874,12.874,0,0,1,7.524,7.364c1.765,4.164,1.928,8.714,1.934,13.169.006,4.946-.066,10.084,2.155,14.635.269.551-.6.937-.871.386-3.865-7.917-1.007-17-3.224-25.273-1.034-3.863-3.239-7.437-7.03-9.067-3.315-1.426-7.032-1.367-10.564-1.676a22.435,22.435,0,0,1-10.327-3.251,33.89,33.89,0,0,1-8.3-7.886,82.588,82.588,0,0,1-12.387-22.646,86.636,86.636,0,0,1-5.225-28.959C274.657,346.383,275.6,346.493,275.608,347.1Z" transform="translate(-269.297 -333)" fill="#fff"/><path d="M278.455,370.4a7.229,7.229,0,0,0,4.842-4.859c.173-.589,1.061-.242.889.343a8.1,8.1,0,0,1-5.345,5.387.492.492,0,0,1-.629-.242A.479.479,0,0,1,278.455,370.4Z" transform="translate(-269.985 -336.653)" fill="#fff"/><path d="M357.015,330.24c-.1.371-.2.742-.288,1.119a95.209,95.209,0,0,0-2.636,15.217c-.042.4-.079.8-.11,1.2a100.369,100.369,0,0,0,3.89,36.747,97.457,97.457,0,0,0,5.322,13.821c2.931,6.167,6.6,12.619,7.3,19.2a16.728,16.728,0,0,1,.115,2.066L344.5,443.276c-.086.024-.168.054-.254.078l-1,.993c-.125-.223-.251-.456-.376-.679-.073-.129-.141-.263-.214-.392-.047-.088-.094-.175-.141-.252-.016-.029-.031-.058-.042-.082-.047-.076-.083-.152-.126-.223q-1.057-1.956-2.09-3.933c-.005-.006-.005-.006-.005-.017a143.315,143.315,0,0,1-12.33-31.56c-.081-.329-.167-.663-.235-1a93.007,93.007,0,0,1-2.321-15,82.209,82.209,0,0,1-.15-8.318,68.376,68.376,0,0,1,4.069-20.987c4.883-13.434,14.008-25.156,26.754-31.208C356.363,330.539,356.683,330.389,357.015,330.24Z" transform="translate(-279.193 -329.797)" fill="#e6e6e6"/><path d="M360.761,330.517a85.126,85.126,0,0,0-16.756,49.622,36.659,36.659,0,0,0,1.45,11.394,21.025,21.025,0,0,0,6.087,9.241c2.581,2.366,5.495,4.488,7.455,7.441a12.874,12.874,0,0,1,1.574,10.41c-1.1,4.387-3.707,8.118-6.385,11.679-2.973,3.953-6.124,8.012-7.09,12.983-.117.6-1.045.385-.928-.216,1.681-8.649,9.428-14.176,12.642-22.12,1.5-3.707,1.892-7.888-.153-11.472-1.788-3.134-4.791-5.325-7.425-7.7a22.435,22.435,0,0,1-6.289-8.814,33.89,33.89,0,0,1-1.883-11.3,82.588,82.588,0,0,1,3.744-25.539,86.635,86.635,0,0,1,13.264-26.268c.365-.491,1.054.167.692.655Z" transform="translate(-282.698 -329.689)" fill="#fff"/><path d="M341.254,382.113a12.771,12.771,0,0,1-10.888-12.448.477.477,0,0,1,.952-.038,11.826,11.826,0,0,0,10.152,11.558c.607.087.387,1.015-.216.928Z" transform="translate(-280.212 -337.428)" fill="#fff"/><path d="M351.737,413.048a24.616,24.616,0,0,0,9.669-15.111c.119-.6,1.047-.385.928.216a25.6,25.6,0,0,1-10.094,15.7c-.5.36-1-.451-.5-.809Z" transform="translate(-284.359 -342.991)" fill="#fff"/><path d="M352.369,351.584a7.229,7.229,0,0,0,6.792-.964c.493-.366.993.445.5.809a8.1,8.1,0,0,1-7.511,1.083.492.492,0,0,1-.356-.572.479.479,0,0,1,.572-.356Z" transform="translate(-284.409 -333.772)" fill="#fff"/></g><path d="M534.519,745.243a70.944,70.944,0,0,0-4.6-22.037c-.182-.486-.377-.96-.583-1.446a67.382,67.382,0,0,0-3.936-8.1,59.961,59.961,0,0,0-22.28-22.645c-.182-.1-.352-.194-.523-.292a56.7,56.7,0,0,0,2.819-25.464c-2.163-17.215-11.784-32.534-23.4-45.035-21.539-23.2-51.825-37.065-72.721-60.707-.268-.3-.547-.62-.814-.935s-.547-.644-.826-.972a96.855,96.855,0,0,1-7.629-10.326,104.371,104.371,0,0,1-9.78-19.693c-.887-2.393-1.7-4.835-2.417-7.289q-1.075-3.608-1.9-7.289-.8-3.626-1.373-7.289-.565-3.626-.887-7.289-.328-3.645-.425-7.289a112.922,112.922,0,0,1,4.616-35.134c.11-.4.231-.79.365-1.191s.243-.8.376-1.2c.11-.352.219-.693.34-1.045,5.625-16.814,15.647-30.967,28.051-43.48,7.751-7.824,16.121-15.052,24.164-22.6.291-.267.583-.547.875-.826s.619-.571.923-.863a188.894,188.894,0,0,0,14.457-15.125,107.423,107.423,0,0,0,7.326-9.743c1.592-2.357,3.073-4.8,4.434-7.289q1.968-3.572,3.584-7.289c1.032-2.381,1.956-4.823,2.745-7.289a68.333,68.333,0,0,0,1.907-7.289,61.192,61.192,0,0,0,1.057-7.289.151.151,0,0,0,.013-.073,48.723,48.723,0,0,0-10.472-34.757c-.292-.377-.6-.741-.911-1.106s-.62-.741-.948-1.093a49.4,49.4,0,0,0-5.224-5.1c-19.936-16.887-46.043-19.742-70.207-27.3-.389-.121-.765-.243-1.154-.364s-.8-.255-1.2-.389a113.973,113.973,0,0,1-18.065-7.508c-.073-.036-.133-.073-.206-.109a68.24,68.24,0,0,1-9.355-6.026,57.452,57.452,0,0,1-7.9-7.289q-.929-1.02-1.786-2.077c-1.348-1.64-3.584.34-2.867,2.077a1.823,1.823,0,0,0,.291.51,59.272,59.272,0,0,0,6.475,6.779,64.893,64.893,0,0,0,9.877,7.289,102.416,102.416,0,0,0,21.721,9.561c.4.134.8.255,1.2.389s.778.243,1.179.364c14.639,4.556,30.14,7.459,44.014,12.635,10.5,3.912,21.066,9.33,29.023,17.36.328.34.656.68.972,1.02s.644.693.96,1.045a46.16,46.16,0,0,1,5.126,7.034,44.914,44.914,0,0,1,5.71,27.128,59.508,59.508,0,0,1-1.094,7.289,64.163,64.163,0,0,1-2.016,7.289c-.729,2.2-1.58,4.349-2.514,6.463-.122.279-.256.559-.377.826q-1.732,3.772-3.79,7.289c-1.458,2.515-3.025,4.932-4.7,7.289a158.47,158.47,0,0,1-20.179,22.584c-.3.291-.607.583-.911.862s-.583.547-.863.826c-13.206,12.44-27.371,24.139-38.1,38.693a103.518,103.518,0,0,0-15.368,30.578c-.122.4-.255.8-.364,1.215-.134.4-.255.8-.365,1.215a116.487,116.487,0,0,0-4.458,35.231c.061,2.43.195,4.859.413,7.289s.49,4.872.85,7.289c.17,1.2.365,2.393.583,3.584.219,1.239.462,2.478.741,3.705.511,2.454,1.118,4.884,1.8,7.289.692,2.454,1.482,4.884,2.344,7.289a106.7,106.7,0,0,0,11.906,23.666c1.847,2.733,3.814,5.345,5.9,7.86.279.328.559.668.838,1s.547.644.826.96c8.285,9.549,18.162,17.664,28.318,25.257,26.775,20.009,60.549,40.576,67.182,76.281a52.89,52.89,0,0,1-2.065,26.435,52.744,52.744,0,0,0-12.136-3.924,62.3,62.3,0,0,0-38.208,5.37l-1.093.547c-.377.206-.753.4-1.118.607a45.085,45.085,0,0,0-17.859,16.96,37.438,37.438,0,0,0-3.122,7.289,36.9,36.9,0,0,0-1.434,7.289c-.109,1.13-.17,2.3-.182,3.475a30.889,30.889,0,0,0,.195,3.815,26.8,26.8,0,0,0,1.858,7.289,20.215,20.215,0,0,0,4.276,6.548c.255.255.51.51.778.741a20.866,20.866,0,0,0,19.256,4.264,31.911,31.911,0,0,0,5.357-1.907q.838-.364,1.64-.8c.535-.267,1.069-.559,1.6-.863a63.649,63.649,0,0,0,12.841-10.132,170.8,170.8,0,0,0,17.64-20.713q1.166-1.6,2.3-3.244a89.684,89.684,0,0,0,9.464-17.543,55.774,55.774,0,0,1,20.726,20.847,60.68,60.68,0,0,1,4.41,9.233c.194.461.364.935.535,1.409.364,1,.7,2.017,1.008,3.037a66.424,66.424,0,0,1,2.879,18.77c.024,1.956-.049,3.924-.206,5.868-.036.535-.085,1.057-.146,1.579a64.144,64.144,0,0,1-4.628,18.162c-.329.79-.68,1.579-1.045,2.357a78.787,78.787,0,0,1-29.351,32.838,84.538,84.538,0,0,1-21.041,9.622c-2.235.68-1.288,4.2.972,3.523,23.58-7.119,44.6-24.613,53.976-47.343a67.988,67.988,0,0,0,4.957-20.556c.012-.206.037-.413.037-.62.048-.62.085-1.227.109-1.847C534.6,749.083,534.592,747.163,534.519,745.243Zm-47.233-33.384a167.712,167.712,0,0,1-17.263,20.507,70.385,70.385,0,0,1-9.306,8.054c-.5.352-1.008.693-1.519,1.033s-1.033.644-1.555.948a30.111,30.111,0,0,1-9.378,3.693,17.166,17.166,0,0,1-12.392-2.187,15.918,15.918,0,0,1-5.7-6.147,6.4,6.4,0,0,1-.328-.644,21.891,21.891,0,0,1-1.883-6.645,28.688,28.688,0,0,1,.012-7.289,34.9,34.9,0,0,1,1.276-6c.134-.437.279-.863.425-1.288a33.733,33.733,0,0,1,3.62-7.289,44.077,44.077,0,0,1,15.7-14.178c.364-.206.728-.4,1.105-.6.352-.194.7-.377,1.069-.547A52.756,52.756,0,0,1,459.5,690a55.234,55.234,0,0,1,38.559,2.43,89.308,89.308,0,0,1-10.775,19.425Z" transform="translate(327.886 88.789)" fill="#e6e6e6"/><ellipse cx="54.669" cy="54.669" rx="54.669" ry="54.669" transform="translate(614.126 262.852)" fill="#fff"/><path d="M352.058,182.9a55.884,55.884,0,1,0,48.024,84.421q.947-1.567,1.786-3.207A55.877,55.877,0,0,0,352.058,182.9Zm0,109.338a53.5,53.5,0,1,1,47.452-28.877c-.559,1.093-1.166,2.162-1.81,3.207a53.457,53.457,0,0,1-45.642,25.67Z" transform="translate(316.735 78.736)" fill="#090814"/><ellipse cx="54.669" cy="54.669" rx="54.669" ry="54.669" transform="translate(657.861 543.485)" fill="#fff"/><path d="M392.014,414.035c-1.251-.085-2.5-.134-3.778-.134h-.182a55.884,55.884,0,1,0,21.2,107.588c1.166-.486,2.32-1.008,3.45-1.555a55.886,55.886,0,0,0-20.689-105.9Zm-3.96,109.2a53.455,53.455,0,1,1-.547-106.909h.547c1.081,0,2.15.036,3.219.1a53.45,53.45,0,0,1,19.79,101.6c-1.142.547-2.3,1.045-3.474,1.506A53.062,53.062,0,0,1,388.054,523.239Z" transform="translate(324.473 128.37)" fill="#090814"/><path d="M3.079,0H57.664a3.079,3.079,0,0,1,3.079,3.079V4.21a3.079,3.079,0,0,1-3.079,3.079H3.079A3.079,3.079,0,0,1,0,4.21V3.079A3.079,3.079,0,0,1,3.079,0Z" transform="translate(742.9 587.221) rotate(180)" fill="#090814"/><path d="M3.079,0H57.664a3.079,3.079,0,0,1,3.079,3.079V4.21a3.079,3.079,0,0,1-3.079,3.079H3.079A3.079,3.079,0,0,1,0,4.21V3.079A3.079,3.079,0,0,1,3.079,0Z" transform="translate(742.9 601.8) rotate(180)" fill="#090814"/><path d="M3.079,0H57.664a3.079,3.079,0,0,1,3.079,3.079V4.21a3.079,3.079,0,0,1-3.079,3.079H3.079A3.079,3.079,0,0,1,0,4.21V3.079A3.079,3.079,0,0,1,3.079,0Z" transform="translate(742.9 616.378) rotate(180)" fill="#090814"/><ellipse cx="54.669" cy="54.669" rx="54.669" ry="54.669" transform="translate(679.729 760.946)" fill="#fff"/><path d="M450.707,615.236c-.717-.96-1.458-1.883-2.235-2.794a55.864,55.864,0,1,0,10.157,55.252,52.994,52.994,0,0,0,1.628-5.321A55.789,55.789,0,0,0,450.707,615.236Zm-44.658,87A53.454,53.454,0,1,1,446.261,613.6c.789.9,1.543,1.822,2.272,2.782a53.362,53.362,0,0,1,8.649,47.975,51.033,51.033,0,0,1-1.8,5.005A53.539,53.539,0,0,1,406.049,702.232Z" transform="translate(328.349 166.837)" fill="#090814"/><ellipse cx="54.669" cy="54.669" rx="54.669" ry="54.669" transform="translate(747.759 375.834)" fill="#0024ff"/><path d="M462.053,275.9a56.158,56.158,0,0,0-8.388.631c-1.428.208-2.812.475-4.186.8A55.856,55.856,0,0,0,425.8,374.281c.935.79,1.883,1.555,2.867,2.284A55.872,55.872,0,1,0,462.053,275.9Zm0,109.338a53.145,53.145,0,0,1-31.586-10.363c-1-.729-1.956-1.482-2.891-2.284A53.423,53.423,0,0,1,451.411,279.4c1.36-.279,2.721-.5,4.106-.668a52.869,52.869,0,0,1,6.536-.4,53.454,53.454,0,0,1,0,106.908Z" transform="translate(340.375 98.718)" fill="#0024ff"/><path d="M3.079,0H57.664a3.079,3.079,0,0,1,3.079,3.079V4.21a3.079,3.079,0,0,1-3.079,3.079H3.079A3.079,3.079,0,0,1,0,4.21V3.079A3.079,3.079,0,0,1,3.079,0Z" transform="translate(832.799 419.569) rotate(180)" fill="#fff"/><path d="M3.079,0H57.664a3.079,3.079,0,0,1,3.079,3.079V4.21a3.079,3.079,0,0,1-3.079,3.079H3.079A3.079,3.079,0,0,1,0,4.21V3.079A3.079,3.079,0,0,1,3.079,0Z" transform="translate(832.799 434.148) rotate(180)" fill="#fff"/><path d="M3.079,0H57.664a3.079,3.079,0,0,1,3.079,3.079V4.21a3.079,3.079,0,0,1-3.079,3.079H3.079A3.079,3.079,0,0,1,0,4.21V3.079A3.079,3.079,0,0,1,3.079,0Z" transform="translate(832.799 448.726) rotate(180)" fill="#fff"/><g transform="translate(647.901 281.664)"><path d="M41.2,20.6a24.987,24.987,0,0,1-.4,4.454,21.885,21.885,0,0,1-2.166,5.371c-1.832,3.254-3.8,4.469-5.411,7.655-.278.215-.563.408-.854.6-.58.374-.643,2.207-1.26,2.523,0,0-.009,0-.013.009a2.329,2.329,0,0,0-.318,1.06v.009c-.311,1.821-.58,5.524-.891,7.715-.042.265-.08.509-.122.723-.105.58-.214.95-.336,1-1.5.58-2.14-.215-3.785,0-.883.118-5.389.841-6.306.841-2.6,0-4.01-.887-6.117-1.837-.147-.064-.294-.13-.45-.2-.057-.021-.1-.046-.159-.067-.6-.256-1.177-6.722-1.745-9.169a.016.016,0,0,1,0-.013c-.118-.509-.235-.841-.353-.908l-.088-.05c-.374-.215-.74-.45-1.1-.694C7.16,36.008,2.977,32.575.912,26.965A23.644,23.644,0,0,1,0,20.6a20.6,20.6,0,1,1,41.2,0Z" transform="translate(0.325 11.077)" fill="#0024ff"/><path d="M41.1,25.865a21.886,21.886,0,0,1-2.165,5.369c-1.832,3.254-3.8,4.469-5.411,7.655-1.073,2.123-1.989,5.121-2.615,10.175-.038.3.042.639,0,.933-.1.651.021.534-.374,1.123-.181.1-.29-.042-.35-.318a8.779,8.779,0,0,1-.025-2.11,27.79,27.79,0,0,1,.916-5.6v-.009c.1-.366.21-.719.318-1.059,1.947-5.928,5.537-8.614,7.164-11.717C47.1,14.041,31.31-4.11,13.914,2.2c-.933.341-.883.538-.933.563A18.97,18.97,0,0,0,9.34,4.444c-7.708,5.244-10.474,15.624-7,24.175,1.883,4.629,5.827,7.239,8.379,12.5q.229.458.441.958a.016.016,0,0,0,0,.013,25.7,25.7,0,0,1,1.9,9.236c0,.057.009.109.009.164.151.013.3.021.441.034,2.233.193,3.678.551,4.427.164l.824.084c.273.382,4.866-.084,5.6-.093h.189a51.186,51.186,0,0,0,5.5-.156c.093-.009.189-.021.282-.034a.492.492,0,0,1,.374.563A4.448,4.448,0,0,1,29.6,54.289c-.862.5-14.9.761-16.244-.185a2.107,2.107,0,0,1-.744-2.519c-.025-.118-.541-.454-.563-.563-.252-1.431.046-5.057-1.677-9.148a11.038,11.038,0,0,0-.748-1.45c-2.165-3.607-6.348-7.038-8.412-12.652A20.989,20.989,0,0,1,.1,18.353C.848,10.449,7.666,2.673,15.317.709,31.329-3.4,44.85,11.118,41.1,25.865Z" transform="translate(0.024 10.268)" fill="#010001"/><path d="M17.225,0c1.332,1.267.621,1.7,0,3.174-.783-.176-14.188.681-16.056,0A1.9,1.9,0,0,1,.609,0,74.851,74.851,0,0,0,17.225,0Z" transform="translate(12.603 64.992)" fill="#010001"/><path d="M18.293.373c.524,1.166-.479,1.882-.934,2.8l-.933.187L1.678,3.174C.789,3,.225,1.759,0,.934A.551.551,0,0,1,.277.373L1.491,0A132.661,132.661,0,0,0,16.147.373a2.133,2.133,0,0,1,2.147,0Z" transform="translate(12.281 68.353)" fill="#010001"/><path d="M7.515,21.583H7.128V15.26L0,.165.35,0,7.515,15.171Z" transform="translate(10.958 31.953)" fill="#0f0f10"/><path d="M.183.03c.791-.538.8,5.77.562,5.975C-.179,6.781-.082.212.183.03Z" transform="translate(20.634 0.002)" fill="#0024ff"/><path d="M.03.019C.652-.382,2.084,5.59,1.991,5.9,1.463,7.658-.261.206.03.019Z" transform="translate(14.438 0.575)" fill="#0024ff"/><path d="M1.206,0C1.947-.191.7,5.616.553,5.886-.846,8.432.8.111,1.206,0Z" transform="translate(25.957 0.589)" fill="#0024ff"/><path d="M.318,22.608,0,15.582l.007-.027L3.791,0l.376.092L.389,15.62.7,22.59Z" transform="translate(24.181 30.939)" fill="#0f0f10"/></g><g transform="translate(712.526 779.758)"><path d="M41.2,20.6a24.987,24.987,0,0,1-.4,4.454,21.885,21.885,0,0,1-2.166,5.371c-1.832,3.254-3.8,4.469-5.411,7.655-.278.215-.563.408-.854.6-.58.374-.643,2.207-1.26,2.523,0,0-.009,0-.013.009a2.329,2.329,0,0,0-.318,1.06v.009c-.311,1.821-.58,5.524-.891,7.715-.042.265-.08.509-.122.723-.105.58-.214.95-.336,1-1.5.58-2.14-.215-3.785,0-.883.118-5.389.841-6.306.841-2.6,0-4.01-.887-6.117-1.837-.147-.064-.294-.13-.45-.2-.057-.021-.1-.046-.159-.067-.6-.256-1.177-6.722-1.745-9.169a.016.016,0,0,1,0-.013c-.118-.509-.235-.841-.353-.908l-.088-.05c-.374-.215-.74-.45-1.1-.694C7.16,36.008,2.977,32.575.912,26.965A23.644,23.644,0,0,1,0,20.6a20.6,20.6,0,1,1,41.2,0Z" transform="translate(0.325 11.077)" fill="#f2f2f2"/><path d="M41.1,25.865a21.886,21.886,0,0,1-2.165,5.369c-1.832,3.254-3.8,4.469-5.411,7.655-1.073,2.123-1.989,5.121-2.615,10.175-.038.3.042.639,0,.933-.1.651.021.534-.374,1.123-.181.1-.29-.042-.35-.318a8.779,8.779,0,0,1-.025-2.11,27.79,27.79,0,0,1,.916-5.6v-.009c.1-.366.21-.719.318-1.059,1.947-5.928,5.537-8.614,7.164-11.717C47.1,14.041,31.31-4.11,13.914,2.2c-.933.341-.883.538-.933.563A18.97,18.97,0,0,0,9.34,4.444c-7.708,5.244-10.474,15.624-7,24.175,1.883,4.629,5.827,7.239,8.379,12.5q.229.458.441.958a.016.016,0,0,0,0,.013,25.7,25.7,0,0,1,1.9,9.236c0,.057.009.109.009.164.151.013.3.021.441.034,2.233.193,3.678.551,4.427.164l.824.084c.273.382,4.866-.084,5.6-.093h.189a51.186,51.186,0,0,0,5.5-.156c.093-.009.189-.021.282-.034a.492.492,0,0,1,.374.563A4.448,4.448,0,0,1,29.6,54.289c-.862.5-14.9.761-16.244-.185a2.107,2.107,0,0,1-.744-2.519c-.025-.118-.541-.454-.563-.563-.252-1.431.046-5.057-1.677-9.148a11.038,11.038,0,0,0-.748-1.45c-2.165-3.607-6.348-7.038-8.412-12.652A20.989,20.989,0,0,1,.1,18.353C.848,10.449,7.666,2.673,15.317.709,31.329-3.4,44.85,11.118,41.1,25.865Z" transform="translate(0.024 10.268)" fill="#010001"/><path d="M17.225,0c1.332,1.267.621,1.7,0,3.174-.783-.176-14.188.681-16.056,0A1.9,1.9,0,0,1,.609,0,74.851,74.851,0,0,0,17.225,0Z" transform="translate(12.603 64.992)" fill="#010001"/><path d="M18.293.373c.524,1.166-.479,1.882-.934,2.8l-.933.187L1.678,3.174C.789,3,.225,1.759,0,.934A.551.551,0,0,1,.277.373L1.491,0A132.661,132.661,0,0,0,16.147.373a2.133,2.133,0,0,1,2.147,0Z" transform="translate(12.281 68.353)" fill="#010001"/><path d="M7.515,21.583H7.128V15.26L0,.165.35,0,7.515,15.171Z" transform="translate(10.958 31.953)" fill="#0f0f10"/><path d="M.183.03c.791-.538.8,5.77.562,5.975C-.179,6.781-.082.212.183.03Z" transform="translate(20.634 0.002)" fill="#0024ff"/><path d="M.03.019C.652-.382,2.084,5.59,1.991,5.9,1.463,7.658-.261.206.03.019Z" transform="translate(14.438 0.575)" fill="#0024ff"/><path d="M1.206,0C1.947-.191.7,5.616.553,5.886-.846,8.432.8.111,1.206,0Z" transform="translate(25.957 0.589)" fill="#0024ff"/><path d="M.318,22.608,0,15.582l.007-.027L3.791,0l.376.092L.389,15.62.7,22.59Z" transform="translate(24.181 30.939)" fill="#0f0f10"/></g></g></svg>